<?xml version="1.0" standalone="no"?>
<!DOCTYPE svg PUBLIC "-//W3C//DTD SVG 20010904//EN"
 "http://www.w3.org/TR/2001/REC-SVG-20010904/DTD/svg10.dtd">
<svg version="1.0" xmlns="http://www.w3.org/2000/svg"
 width="512.000000pt" height="512.000000pt" viewBox="0 0 512.000000 512.000000"
 preserveAspectRatio="xMidYMid meet">

<g transform="translate(0.000000,512.000000) scale(0.100000,-0.100000)"
fill="#000000" stroke="none">
<path d="M10 5040 l0 -70 70 0 70 0 0 70 0 70 -70 0 -70 0 0 -70z m56 38 c-1
-15 6 -24 24 -29 19 -5 21 -7 6 -8 -20 -1 -20 -1 0 -15 17 -13 18 -15 2 -21
-10 -4 -23 -5 -30 -2 -7 3 -3 6 10 6 l22 1 -20 20 c-25 25 -29 25 -39 -2 l-8
-22 -5 22 c-4 15 -2 22 8 22 8 0 14 10 14 25 0 14 4 25 9 25 4 0 8 -10 7 -22z
m66 -15 c-5 -23 -7 -25 -10 -8 -2 11 -9 23 -16 27 -6 5 -3 8 10 8 18 0 20 -4
16 -27z"/>
</g>
</svg>
